# File created by Blade
# Date/Time:  Thu Jan 22 16:21:49 2015
#---------------------------------------------------------
:version 1.10
:name HOM
:units
  mass 1.0
  length 1.000000
  angle deg
:documentation
     Acclaim Skeleton File
:root
   axis xyz
   order TX TY TZ RX RY RZ
   position 0.000000 0.000000 0.000000
   orientation 0 0 0
:bonedata
   begin
      id 1
      name RightUpLeg_dum
      direction -1.000000 0.000000 0.000000
      length 3.766986
      axis 0.0 0.0 0.0 xyz
   end
   begin
      id 2
      name LeftUpLeg_dum
      direction 1.000000 0.000000 0.000000
      length 3.766986
      axis 0.0 0.0 0.0 xyz
   end
   begin
      id 3
      name Spine_dum
      direction 0.000000 1.000000 0.000000
      length 7.779697
      axis 0.0 0.0 0.0 xyz
   end
   begin
      id 4
      name RightUpLeg
      direction 0.000000 -1.000000 0.000000
      length 18.017682
      axis 0.0 0.0 0.0 xyz
      dof rx ry rz
   end
   begin
      id 5
      name RightLeg
      direction 0.000000 -1.000000 0.000000
      length 16.881075
      axis 0.0 0.0 0.0 xyz
      dof rx ry rz
   end
   begin
      id 6
      name RightFoot
      direction 0.000000 -0.258819 0.965926
      length 5.770812
      axis 15.0 0.0 0.0 xyz
      dof rx ry rz
   end
   begin
      id 7
      name RightToeBase
      direction 0.000000 0.000000 1.000000
      length 2.952750
      axis 0.0 0.0 0.0 xyz
      dof rx ry rz
   end
   begin
      id 8
      name LeftUpLeg
      direction 0.000000 -1.000000 0.000000
      length 18.017682
      axis 0.0 0.0 0.0 xyz
      dof rx ry rz
   end
   begin
      id 9
      name LeftLeg
      direction 0.000000 -1.000000 0.000000
      length 16.881075
      axis 0.0 0.0 0.0 xyz
      dof rx ry rz
   end
   begin
      id 10
      name LeftFoot
      direction 0.000000 -0.258819 0.965926
      length 5.770812
      axis 15.0 0.0 0.0 xyz
      dof rx ry rz
   end
   begin
      id 11
      name LeftToeBase
      direction 0.000000 0.000000 1.000000
      length 2.952750
      axis 0.0 0.0 0.0 xyz
      dof rx ry rz
   end
   begin
      id 12
      name Spine
      direction 0.000000 1.000000 0.000000
      length 0.000000
      axis 0.0 0.0 0.0 xyz
      dof rx ry rz
   end
   begin
      id 13
      name Spine_dum1
      direction 0.000000 1.000000 0.000000
      length 10.941760
      axis 0.0 0.0 0.0 xyz
   end
   begin
      id 14
      name Spine_dum2
      direction 0.000000 1.000000 0.000000
      length 10.941760
      axis 0.0 0.0 0.0 xyz
   end
   begin
      id 15
      name Spine_dum3
      direction 0.000000 1.000000 0.000000
      length 16.646042
      axis 0.0 0.0 0.0 xyz
   end
   begin
      id 16
      name RightShoulder
      direction -1.000000 0.000000 0.000000
      length 7.708937
      axis 0.0 0.0 90.0 xyz
      dof rx ry rz
   end
   begin
      id 17
      name RightArm
      direction -1.000000 0.000000 0.000000
      length 11.521345
      axis 0.0 0.0 90.0 xyz
      dof rx ry rz
   end
   begin
      id 18
      name RightForeArm
      direction -1.000000 0.000000 0.000000
      length 10.175898
      axis 0.0 0.0 90.0 xyz
      dof ry rz rx
   end
   begin
      id 19
      name RightHand
      direction -1.000000 0.000000 0.000000
      length 0.000000
      axis 0.0 0.0 90.0 xyz
      dof rx ry rz
   end
   begin
      id 20
      name RightHand_dum1
      direction -1.000000 0.000000 0.000000
      length 3.937000
      axis 0.0 0.0 90.0 xyz
   end
   begin
      id 21
      name RightHand_dum2
      direction 0.000000 0.000000 0.000000
      length 0.000000
      axis 0.0 0.0 90.0 xyz
   end
   begin
      id 22
      name RightHandThumb1
      direction 0.000000 0.000000 1.000000
      length 3.937000
      axis 0.0 0.0 90.0 xyz
      dof rx rz ry
   end
   begin
      id 23
      name LeftShoulder
      direction 1.000000 0.000000 0.000000
      length 7.708937
      axis 0.0 0.0 -90.0 xyz
      dof rx ry rz
   end
   begin
      id 24
      name LeftArm
      direction 1.000000 0.000000 0.000000
      length 11.521345
      axis 0.0 0.0 -90.0 xyz
      dof rx ry rz
   end
   begin
      id 25
      name LeftForeArm
      direction 1.000000 0.000000 0.000000
      length 10.175898
      axis 0.0 0.0 -90.0 xyz
      dof ry rz rx
   end
   begin
      id 26
      name LeftHand
      direction 1.000000 0.000000 0.000000
      length 0.000000
      axis 0.0 0.0 -90.0 xyz
      dof rx ry rz
   end
   begin
      id 27
      name LeftHand_dum1
      direction 1.000000 0.000000 0.000000
      length 3.937000
      axis 0.0 0.0 -90.0 xyz
   end
   begin
      id 28
      name LeftHand_dum2
      direction 0.000000 0.000000 0.000000
      length 0.000000
      axis 0.0 0.0 -90.0 xyz
   end
   begin
      id 29
      name LeftHandThumb1
      direction 0.000000 0.000000 1.000000
      length 3.937000
      axis 0.0 0.0 -90.0 xyz
      dof rx rz ry
   end
   begin
      id 30
      name Head
      direction 0.000000 1.000000 0.000000
      length 4.527550
      axis 0.0 0.0 0.0 xyz
      dof rx ry rz
   end
:hierarchy
   begin
      root RightUpLeg_dum LeftUpLeg_dum Spine_dum
      RightUpLeg_dum RightUpLeg
      LeftUpLeg_dum LeftUpLeg
      Spine_dum Spine
      RightUpLeg RightLeg
      RightLeg RightFoot
      RightFoot RightToeBase
      LeftUpLeg LeftLeg
      LeftLeg LeftFoot
      LeftFoot LeftToeBase
      Spine Spine_dum1 Spine_dum2 Spine_dum3
      Spine_dum1 RightShoulder
      Spine_dum2 LeftShoulder
      Spine_dum3 Head
      RightShoulder RightArm
      RightArm RightForeArm
      RightForeArm RightHand
      RightHand RightHand_dum1 RightHand_dum2
      RightHand_dum2 RightHandThumb1
      LeftShoulder LeftArm
      LeftArm LeftForeArm
      LeftForeArm LeftHand
      LeftHand LeftHand_dum1 LeftHand_dum2
      LeftHand_dum2 LeftHandThumb1
   end

# File created by Blade
# Date/Time:  Thu Jan 22 16:21:39 2015
# Frame Rate: 120.000 fps
#------------------------------------------------------
:FULLY-SPECIFIED
:DEGREES
520
root 19.987629 34.659179 -10.474104 -4.795531 10.002742 -8.762414
RightUpLeg 14.987400 1.435702 29.774548
RightLeg -8.289748 -0.000000 0.000000
RightFoot -7.295792 -10.273167 2.829989
RightToeBase 5.340696 -0.000000 -0.000000
LeftUpLeg -22.801327 -22.565607 -2.440784
LeftLeg 12.982080 -0.000000 -0.000000
LeftFoot 12.755706 10.172115 -8.272636
LeftToeBase 9.860552 -0.000000 -0.000000
Spine 20.897115 0.059360 -48.362533
RightShoulder -11.214692 6.043605 -47.394748
RightArm 55.790319 68.585944 7.969594
RightForeArm -14.691104 -0.000000 24.302843
RightHand 20.388759 -0.000000 -49.003227
RightHandThumb1 -24.326973 -0.000000 -32.862282
LeftShoulder -5.484941 35.717896 1.708780
LeftArm 36.079699 -11.004542 -61.498396
LeftForeArm 34.532079 -0.000000 9.697947
LeftHand -18.835564 0.000000 -9.930047
LeftHandThumb1 -26.253704 0.000000 33.147579
Head 35.508002 61.274590 -18.721824
521
root 19.993264 34.663757 -10.476541 -4.805559 10.005460 -8.783180
RightUpLeg 14.983574 1.453336 29.782936
RightLeg -8.283239 -0.000000 0.000000
RightFoot -7.309901 -10.244276 2.961677
RightToeBase 5.437626 -0.000000 -0.000000
LeftUpLeg -22.748211 -22.526895 -2.442451
LeftLeg 12.896224 -0.000000 -0.000000
LeftFoot 12.816702 10.142059 -8.261153
LeftToeBase 9.924046 -0.000000 -0.000000
Spine 20.878494 0.123287 -48.290694
RightShoulder -11.216703 5.973117 -47.388545
RightArm 56.201499 68.527661 8.279758
RightForeArm -14.905451 -0.000000 24.353074
RightHand 19.994965 -0.000000 -49.073136
RightHandThumb1 -24.326973 -0.000000 -32.862282
LeftShoulder -5.447595 35.741280 1.701791
LeftArm 36.101382 -11.013211 -61.508255
LeftForeArm 34.426398 -0.000000 9.705439
LeftHand -18.712527 0.000000 -9.996421
LeftHandThumb1 -26.253704 0.000000 33.147579
Head 35.499532 61.168275 -18.760070
522
root 20.000263 34.668285 -10.477303 -4.812233 9.989784 -8.785729
RightUpLeg 15.002543 1.489816 29.779207
RightLeg -8.297431 -0.000000 0.000000
RightFoot -7.304261 -10.271244 3.009901
RightToeBase 5.472096 -0.000000 -0.000000
LeftUpLeg -22.674660 -22.463873 -2.465312
LeftLeg 12.783370 -0.000000 -0.000000
LeftFoot 12.894682 10.093303 -8.215894
LeftToeBase 9.939469 -0.000000 -0.000000
Spine 20.843043 0.187762 -48.230037
RightShoulder -11.244222 5.854757 -47.382570
RightArm 56.589516 68.495165 8.507814
RightForeArm -14.914432 -0.000000 24.286275
RightHand 20.154892 -0.000000 -49.164862
RightHandThumb1 -24.326973 -0.000000 -32.862282
LeftShoulder -5.407312 35.745570 1.701282
LeftArm 36.094622 -11.015944 -61.527917
LeftForeArm 34.392247 -0.000000 9.723535
LeftHand -18.643266 -0.000000 -10.021337
LeftHandThumb1 -26.253704 0.000000 33.147579
Head 35.455936 61.077663 -18.815003
523
root 20.009177 34.672156 -10.476585 -4.811578 9.956907 -8.768598
RightUpLeg 15.021841 1.499651 29.746085
RightLeg -8.302191 -0.000000 0.000000
RightFoot -7.312587 -10.215610 3.007300
RightToeBase 5.302563 -0.000000 -0.000000
LeftUpLeg -22.592368 -22.413321 -2.496593
LeftLeg 12.646576 -0.000000 -0.000000
LeftFoot 12.942459 10.067580 -8.198115
LeftToeBase 10.047480 -0.000000 -0.000000
Spine 20.775040 0.251051 -48.187418
RightShoulder -11.194969 5.864854 -47.372830
RightArm 56.858338 68.418582 8.670808
RightForeArm -14.835526 -0.000000 24.314862
RightHand 20.347116 -0.000000 -49.012605
RightHandThumb1 -24.326973 -0.000000 -32.862282
LeftShoulder -5.364378 35.766599 1.700766
LeftArm 36.076646 -10.999618 -61.534859
LeftForeArm 34.368122 -0.000000 9.749782
LeftHand -18.723771 0.000000 -9.999170
LeftHandThumb1 -26.253704 0.000000 33.147579
Head 35.485366 61.021782 -18.800877
524
root 20.016295 34.677013 -10.477534 -4.815942 9.943403 -8.755928
RightUpLeg 15.030035 1.511541 29.729950
RightLeg -8.285679 -0.000000 0.000000
RightFoot -7.310496 -10.297718 3.057773
RightToeBase 5.504725 -0.000000 -0.000000
LeftUpLeg -22.499864 -22.359454 -2.532372
LeftLeg 12.495947 -0.000000 -0.000000
LeftFoot 13.024092 10.042623 -8.179984
LeftToeBase 10.109154 -0.000000 -0.000000
Spine 20.722973 0.299957 -48.168971
RightShoulder -11.100201 5.862014 -47.329359
RightArm 56.694535 68.323979 8.340220
RightForeArm -14.833052 0.000000 24.227760
RightHand 20.416375 -0.000000 -49.025470
RightHandThumb1 -24.326973 -0.000000 -32.862282
LeftShoulder -5.321044 35.861076 1.792851
LeftArm 36.139963 -11.010307 -61.682187
LeftForeArm 34.596742 -0.000000 9.819899
LeftHand -19.280274 -0.000000 -9.101476
LeftHandThumb1 -26.253704 0.000000 33.147579
Head 35.256703 60.879077 -19.088241
525
root 20.023409 34.681152 -10.476250 -4.826502 9.907736 -8.744021
RightUpLeg 15.051144 1.511024 29.704941
RightLeg -8.266152 -0.000000 0.000000
RightFoot -7.357656 -10.269045 3.131039
RightToeBase 5.626146 -0.000000 -0.000000
LeftUpLeg -22.395705 -22.316328 -2.558710
LeftLeg 12.339267 -0.000000 -0.000000
LeftFoot 13.082942 10.029592 -8.155764
LeftToeBase 10.099882 -0.000000 -0.000000
Spine 20.671677 0.341803 -48.122681
RightShoulder -11.093099 5.796256 -47.327599
RightArm 57.132001 68.322731 8.749998
RightForeArm -14.811053 -0.000000 24.346089
RightHand 20.274967 -0.000000 -48.854105
RightHandThumb1 -24.326973 -0.000000 -32.862282
LeftShoulder -5.292563 35.897454 1.790802
LeftArm 36.144549 -11.021694 -61.717395
LeftForeArm 34.541835 -0.000000 9.813009
LeftHand -19.247651 0.000000 -9.088878
LeftHandThumb1 -26.253704 0.000000 33.147579
Head 35.187561 60.852944 -19.159526
526
root 20.030067 34.685668 -10.472510 -4.840983 9.855817 -8.721150
RightUpLeg 15.088037 1.521518 29.676627
RightLeg -8.250048 -0.000000 0.000000
RightFoot -7.389658 -10.275666 3.188385
RightToeBase 5.660120 -0.000000 -0.000000
LeftUpLeg -22.275809 -22.272163 -2.592756
LeftLeg 12.171830 -0.000000 -0.000000
LeftFoot 13.117290 10.039055 -8.143211
LeftToeBase 10.176489 -0.000000 -0.000000
Spine 20.611092 0.400960 -48.084929
RightShoulder -11.066435 5.751848 -47.309012
RightArm 57.127231 68.245212 8.562525
RightForeArm -14.785945 0.000000 24.279476
RightHand 20.113744 -0.000000 -48.960677
RightHandThumb1 -24.326973 -0.000000 -32.862282
LeftShoulder -5.231719 35.829930 1.772690
LeftArm 36.039443 -10.987600 -61.655946
LeftForeArm 34.403713 -0.000000 9.732994
LeftHand -19.093971 -0.000000 -9.855016
LeftHandThumb1 -26.253704 0.000000 33.147579
Head 35.148932 60.880071 -19.171116
